<?xml version="1.0" encoding="iso-8859-1"?>
<!-- Generator: Adobe Illustrator 19.1.0, SVG Export Plug-In . SVG Version: 6.00 Build 0)  -->
<svg xmlns="http://www.w3.org/2000/svg" xmlns:xlink="http://www.w3.org/1999/xlink" version="1.1" id="Capa_1" x="0px" y="0px" viewBox="0 0 333.135 333.135" style="enable-background:new 0 0 333.135 333.135;" xml:space="preserve" width="512px" height="512px">
<g>
	<path d="M308.771,128.916c0.527-3.985,0.778-7.731,0.778-11.375c0-50.206-40.843-91.049-91.043-91.049   c-30.103,0-58.375,15.142-75.245,39.917c-8.49-4.409-17.905-6.71-27.578-6.71c-31.177,0-56.877,23.908-59.712,54.57   C24.165,119.79,0,147.952,0,180.729c0,37.211,30.27,67.482,67.482,67.482h73.189v42.514c0,8.773,7.14,15.919,15.919,15.919h32.815   c8.785,0,15.932-7.14,15.932-15.919v-42.513h60.316c37.218,0,67.482-30.27,67.482-67.482   C333.122,160.774,324.08,141.692,308.771,128.916z M192.471,290.731c0,1.69-1.382,3.066-3.078,3.066h-32.815   c-1.69,0-3.066-1.375-3.066-3.066v-42.514v-47.16h-43.343l60.123-77.938c1.658-2.147,3.747-2.147,5.399-0.006l60.104,77.945h-43.33   v47.16v42.513H192.471z M265.64,235.364h-60.316v-21.453h30.791c5.887,0,10.444-2.391,12.487-6.562   c2.044-4.171,1.17-9.235-2.436-13.895l-60.29-78.189c-3.278-4.235-7.969-6.665-12.879-6.665c-4.917,0-9.615,2.429-12.879,6.665   l-60.322,78.195c-3.599,4.666-4.48,9.73-2.429,13.895c2.044,4.158,6.594,6.555,12.481,6.555h30.81v21.453H67.475   c-30.123,0-54.628-24.506-54.628-54.628c0-28.066,21.89-51.955,49.847-54.384l5.855-0.771v-5.893   c0-25.99,21.144-47.128,47.128-47.128c9.332,0,18.368,2.731,26.119,7.905l5.688,3.792l3.432-5.906   C164.906,54.294,190.8,39.352,218.5,39.352c43.118,0,78.189,35.078,78.189,78.195c0,4.055-0.379,8.323-1.183,13.046l-0.656,3.882   l3.175,2.339c14.133,10.45,22.23,26.453,22.23,43.915C320.268,210.852,295.763,235.364,265.64,235.364z" fill="#FFFFFF"/>
</g>
<g>
</g>
<g>
</g>
<g>
</g>
<g>
</g>
<g>
</g>
<g>
</g>
<g>
</g>
<g>
</g>
<g>
</g>
<g>
</g>
<g>
</g>
<g>
</g>
<g>
</g>
<g>
</g>
<g>
</g>
</svg>
